<?xml version="1.0" standalone="no"?><!DOCTYPE svg PUBLIC "-//W3C//DTD SVG 1.1//EN" "http://www.w3.org/Graphics/SVG/1.1/DTD/svg11.dtd"><svg t="1535904182211" class="icon" style="" viewBox="0 0 1024 1024" version="1.1" xmlns="http://www.w3.org/2000/svg" p-id="3941" xmlns:xlink="http://www.w3.org/1999/xlink" width="200" height="200"><defs><style type="text/css"></style></defs><path d="M988.262301 0.000102A35.839996 35.839996 0 1 0 1023.999898 35.942499 35.839996 35.839996 0 0 0 988.262301 0.000102zM988.262301 158.720087A35.839996 35.839996 0 1 0 1023.999898 194.560083a35.942396 35.942396 0 0 0-35.737597-35.839996zM378.879962 460.800056H81.919992a81.919992 81.919992 0 0 1-81.919992-81.919991V81.920094a81.919992 81.919992 0 0 1 81.919992-81.919992h296.95997a81.919992 81.919992 0 0 1 81.919992 81.919992v296.959971a81.919992 81.919992 0 0 1-81.919992 81.919991z m-266.239973-71.679993h235.519976a40.959996 40.959996 0 0 0 40.959996-40.959995V112.640091a40.959996 40.959996 0 0 0-40.959996-40.959996H112.639989a40.959996 40.959996 0 0 0-40.959996 40.959996v235.519977a40.959996 40.959996 0 0 0 40.959996 40.959995zM378.879962 1024H81.919992a81.919992 81.919992 0 0 1-81.919992-81.919992V645.120038a81.919992 81.919992 0 0 1 81.919992-81.919992h296.95997a81.919992 81.919992 0 0 1 81.919992 81.919992v296.95997a81.919992 81.919992 0 0 1-81.919992 81.919992z m-266.239973-71.679993h235.519976a40.959996 40.959996 0 0 0 40.959996-40.959996V675.840035a40.959996 40.959996 0 0 0-40.959996-40.959996H112.639989a40.959996 40.959996 0 0 0-40.959996 40.959996v235.519976a40.959996 40.959996 0 0 0 40.959996 40.959996zM942.079906 1024H645.119935a81.919992 81.919992 0 0 1-81.919991-81.919992V645.120038a81.919992 81.919992 0 0 1 81.919991-81.919992h296.959971a81.919992 81.919992 0 0 1 81.919992 81.919992v296.95997a81.919992 81.919992 0 0 1-81.919992 81.919992z m-266.239974-71.679993h235.519977a40.959996 40.959996 0 0 0 40.959996-40.959996V675.840035a40.959996 40.959996 0 0 0-40.959996-40.959996H675.839932a40.959996 40.959996 0 0 0-40.959995 40.959996v235.519976a40.959996 40.959996 0 0 0 40.959995 40.959996zM1023.999898 353.280067V378.880065a81.919992 81.919992 0 0 1-81.919992 81.919991H645.119935a81.919992 81.919992 0 0 1-81.919991-81.919991V81.920094a81.919992 81.919992 0 0 1 81.919991-81.919992h153.599985a35.839996 35.839996 0 0 1 35.839997 35.839997A35.839996 35.839996 0 0 1 799.23192 71.680095H670.719933a35.839996 35.839996 0 0 0-35.839996 35.839997v245.759975a35.839996 35.839996 0 0 0 35.839996 35.839996h245.759975a35.839996 35.839996 0 0 0 35.839997-35.839996 35.839996 35.839996 0 0 1 35.839996-35.839996 35.839996 35.839996 0 0 1 35.839997 35.839996z" p-id="3942"></path></svg>