<?xml version="1.0" standalone="no"?><!DOCTYPE svg PUBLIC "-//W3C//DTD SVG 1.1//EN" "http://www.w3.org/Graphics/SVG/1.1/DTD/svg11.dtd"><svg t="1535904043704" class="icon" style="" viewBox="0 0 1024 1024" version="1.1" xmlns="http://www.w3.org/2000/svg" p-id="2519" xmlns:xlink="http://www.w3.org/1999/xlink" width="200" height="200"><defs><style type="text/css"></style></defs><path d="M810.666667 128a85.333333 85.333333 0 0 1 85.333333 85.333333v597.333334a85.333333 85.333333 0 0 1-85.333333 85.333333H213.333333a85.333333 85.333333 0 0 1-85.333333-85.333333V213.333333c0-47.36 37.973333-85.333333 85.333333-85.333333h597.333334m-341.333334 597.333333h85.333334v-139.52l120.746666 69.546667 42.666667-73.813333L597.333333 512l120.746667-69.973333-42.666667-73.813334L554.666667 438.186667V298.666667h-85.333334v139.52L348.586667 368.213333l-42.666667 73.813334L426.666667 512l-120.746667 69.546667 42.666667 73.813333L469.333333 585.813333V725.333333z" fill="" p-id="2520"></path></svg>